<svg width="94" height="94" viewBox="0 0 94 94" fill="none" xmlns="http://www.w3.org/2000/svg">
<g clip-path="url(#clip0_2472_3980)">
<path d="M83.1666 16H10.8332C9.46295 16 8.14878 16.5443 7.17985 17.5133C6.21091 18.4822 5.66656 19.7964 5.66656 21.1667V72.8333C5.66656 74.2036 6.21091 75.5178 7.17985 76.4867C8.14878 77.4557 9.46295 78 10.8332 78H83.1666C84.5369 78 85.851 77.4557 86.82 76.4867C87.7889 75.5178 88.3332 74.2036 88.3332 72.8333V21.1667C88.3332 19.7964 87.7889 18.4822 86.82 17.5133C85.851 16.5443 84.5369 16 83.1666 16ZM79.1882 72.8333H15.1216L33.2049 54.13L29.4849 50.5392L10.8332 69.8367V25.0933L42.9441 57.0492C43.9121 58.0115 45.2216 58.5516 46.5866 58.5516C47.9515 58.5516 49.261 58.0115 50.2291 57.0492L83.1666 24.2925V69.5008L64.1532 50.4875L60.5107 54.13L79.1882 72.8333ZM14.2174 21.1667H78.9816L46.5866 53.3808L14.2174 21.1667Z" fill="#042A2B"/>
</g>
<defs>
<clipPath id="clip0_2472_3980">
<rect width="93" height="93" fill="white" transform="translate(0.5 0.5)"/>
</clipPath>
</defs>
</svg>
