<svg width="100" height="100" viewBox="0 0 100 100" fill="none" xmlns="http://www.w3.org/2000/svg">
<path d="M50 8.33594C44.5282 8.33594 39.1101 9.41368 34.0548 11.5076C28.9996 13.6016 24.4063 16.6707 20.5372 20.5398C12.7232 28.3538 8.33331 38.9519 8.33331 50.0026C8.33331 68.4193 20.2916 84.0443 36.8333 89.5859C38.9166 89.9193 39.5833 88.6276 39.5833 87.5026V80.4609C28.0416 82.9609 25.5833 74.8776 25.5833 74.8776C23.6666 70.0443 20.9583 68.7526 20.9583 68.7526C17.1666 66.1693 21.25 66.2526 21.25 66.2526C25.4166 66.5443 27.625 70.5443 27.625 70.5443C31.25 76.8776 37.375 75.0026 39.75 74.0026C40.125 71.2943 41.2083 69.4609 42.375 68.4193C33.125 67.3776 23.4166 63.7943 23.4166 47.9193C23.4166 43.2943 25 39.5859 27.7083 36.6276C27.2916 35.5859 25.8333 31.2526 28.125 25.6276C28.125 25.6276 31.625 24.5026 39.5833 29.8776C42.875 28.9609 46.4583 28.5026 50 28.5026C53.5416 28.5026 57.125 28.9609 60.4166 29.8776C68.375 24.5026 71.875 25.6276 71.875 25.6276C74.1666 31.2526 72.7083 35.5859 72.2916 36.6276C75 39.5859 76.5833 43.2943 76.5833 47.9193C76.5833 63.8359 66.8333 67.3359 57.5416 68.3776C59.0416 69.6693 60.4166 72.2109 60.4166 76.0859V87.5026C60.4166 88.6276 61.0833 89.9609 63.2083 89.5859C79.75 84.0026 91.6666 68.4193 91.6666 50.0026C91.6666 44.5309 90.5889 39.1127 88.495 34.0575C86.401 29.0022 83.3319 24.4089 79.4628 20.5398C75.5936 16.6707 71.0003 13.6016 65.9451 11.5076C60.8899 9.41368 55.4717 8.33594 50 8.33594Z" fill="#231E1E"/>
</svg>
