<svg width="96" height="96" viewBox="0 0 96 96" fill="none" xmlns="http://www.w3.org/2000/svg">
<path fill-rule="evenodd" clip-rule="evenodd" d="M39.6345 15.1993C44.6458 21.4927 49.1193 28.1961 53.0078 35.2388C59.9935 32.6281 66.6337 29.173 72.7806 24.9504C69.6167 21.5418 65.7827 18.8236 61.5189 16.9664C57.2552 15.1091 52.6537 14.1528 48.0031 14.1574C45.1151 14.1574 42.3133 14.5184 39.6345 15.1993ZM76.5547 29.8238C70.1205 34.2679 63.1799 37.9297 55.8794 40.7317C57.0499 43.0946 58.1548 45.4958 59.194 47.9352C66.7435 46.8229 74.4396 47.2372 81.8261 49.1536C81.8397 48.7707 81.8466 48.3865 81.8466 48.0009C81.8592 41.5602 80.0224 35.2513 76.5547 29.8238ZM81.0548 55.3193C74.7164 53.5554 68.0941 53.0481 61.561 53.8261C64.2018 60.8669 66.2773 68.107 67.7677 75.4777C74.5216 70.6176 79.2511 63.4423 81.0548 55.3193ZM62.1353 78.7636C60.622 70.6353 58.3673 62.6628 55.3994 54.946C43.8543 57.8182 33.6953 64.6775 26.7165 74.3127C32.7323 79.2008 40.2517 81.8613 48.0031 81.8444C52.8815 81.8544 57.7037 80.8031 62.1353 78.7636ZM22.2656 69.9807C29.8944 59.7909 40.7348 52.4696 53.0365 49.1987C52.0853 47.0271 51.0771 44.8809 50.0132 42.7623C38.4294 46.3634 26.2779 47.7836 14.176 46.9507C14.165 47.298 14.1596 47.6481 14.1596 48.0009C14.1596 56.39 17.2075 64.0653 22.2656 69.9807ZM14.9226 40.8342C16.8752 40.96 18.8471 41.0229 20.838 41.0229C29.7189 41.0309 38.554 39.7514 47.0678 37.2243C43.1387 30.2346 38.6019 23.6043 33.5098 17.4104C28.8273 19.6348 24.7168 22.9028 21.4939 26.9633C18.2711 31.0238 16.0217 35.7689 14.9185 40.8342M33.2555 10.8058C37.9491 8.94469 42.954 7.99383 48.0031 8.00399C54.1362 8.00102 60.1878 9.41 65.6889 12.1218C71.1899 14.8336 75.9929 18.7753 79.7257 23.6417C85.1049 30.6213 88.0151 39.189 87.9999 48.0009C87.9999 49.9016 87.87 51.7708 87.6102 53.6086C86.7297 59.8041 84.4093 65.7068 80.8351 70.8433C77.2609 75.9799 72.5325 80.2071 67.0293 83.1858C61.1884 86.3531 54.6474 88.0074 48.0031 87.9977C37.778 88.0111 27.9386 84.0959 20.518 77.0612C15.9793 72.7774 12.5083 67.489 10.3838 61.6206C8.25926 55.7523 7.54048 49.4675 8.28514 43.271C9.14013 36.1131 11.9118 29.3188 16.3075 23.6053C20.7033 17.8919 26.5601 13.4712 33.2596 10.8099" fill="#231E1E"/>
</svg>
