<svg width="80" height="80" viewBox="0 0 80 80" fill="none" xmlns="http://www.w3.org/2000/svg">
<g clip-path="url(#clip0_2472_3970)">
<path fill-rule="evenodd" clip-rule="evenodd" d="M31.6345 7.19737C36.6458 13.4907 41.1193 20.1941 45.0078 27.2368C51.9935 24.6261 58.6337 21.171 64.7806 16.9484C61.6167 13.5398 57.7827 10.8217 53.5189 8.96443C49.2552 7.10717 44.6537 6.15084 40.0031 6.1554C37.1151 6.1554 34.3133 6.5164 31.6345 7.19737ZM68.5547 21.8219C62.1205 26.266 55.1799 29.9278 47.8794 32.7297C49.0499 35.0926 50.1548 37.4938 51.194 39.9333C58.7435 38.8209 66.4396 39.2352 73.8261 41.1516C73.8397 40.7688 73.8466 40.3845 73.8466 39.9989C73.8592 33.5582 72.0224 27.2493 68.5547 21.8219ZM73.0548 47.3173C66.7164 45.5534 60.0941 45.0461 53.561 45.8241C56.2018 52.865 58.2773 60.1051 59.7677 67.4757C66.5216 62.6156 71.2511 55.4403 73.0548 47.3173ZM54.1353 70.7616C52.622 62.6334 50.3673 54.6609 47.3994 46.944C35.8543 49.8162 25.6953 56.6755 18.7165 66.3107C24.7323 71.1988 32.2517 73.8594 40.0031 73.8424C44.8815 73.8524 49.7037 72.8012 54.1353 70.7616ZM14.2656 61.9787C21.8944 51.789 32.7348 44.4676 45.0365 41.1968C44.0853 39.0252 43.0771 36.879 42.0132 34.7603C30.4294 38.3615 18.2779 39.7816 6.17596 38.9487C6.16503 39.2961 6.15956 39.6461 6.15956 39.9989C6.15956 48.388 9.20752 56.0633 14.2656 61.9787ZM6.92257 32.8323C8.87524 32.9581 10.8471 33.021 12.838 33.021C21.7189 33.0289 30.554 31.7494 39.0678 29.2223C35.1387 22.2326 30.6019 15.6024 25.5098 9.40848C20.8273 11.6329 16.7168 14.9008 13.4939 18.9614C10.2711 23.0219 8.02172 27.767 6.91847 32.8323M25.2555 2.80387C29.9491 0.942735 34.954 -0.0081264 40.0031 0.00203369C46.1362 -0.00093364 52.1878 1.40805 57.6889 4.11982C63.1899 6.8316 67.9929 10.7734 71.7257 15.6398C77.1049 22.6193 80.0151 31.187 79.9999 39.9989C79.9999 41.8996 79.87 43.7689 79.6102 45.6067C78.7297 51.8021 76.4093 57.7049 72.8351 62.8414C69.2609 67.9779 64.5325 72.2051 59.0293 75.1839C53.1884 78.3512 46.6474 80.0054 40.0031 79.9958C29.778 80.0092 19.9386 76.094 12.518 69.0592C7.97926 64.7754 4.50825 59.487 2.38376 53.6187C0.259263 47.7503 -0.459515 41.4655 0.285143 35.269C1.14013 28.1111 3.91178 21.3169 8.30753 15.6034C12.7033 9.88993 18.5601 5.46924 25.2596 2.80797" fill="#231E1E"/>
</g>
<defs>
<clipPath id="clip0_2472_3970">
<rect width="80" height="79.9939" fill="white" transform="translate(0 0.00195312)"/>
</clipPath>
</defs>
</svg>
