<svg width="100" height="100" viewBox="0 0 100 100" fill="none" xmlns="http://www.w3.org/2000/svg">
<path d="M34.7619 83.9305H20.8333V37.502H34.7619V83.9305ZM85.8333 83.9305H71.9047V59.1284C71.9047 52.6655 69.6019 49.448 65.038 49.448C61.4212 49.448 59.1276 51.2495 57.9762 54.857V83.9305H44.0476C44.0476 83.9305 44.2333 42.1448 44.0476 37.502H55.0419L55.8915 46.7877H56.1794C59.0347 42.1448 63.5987 38.997 69.8572 38.997C74.6162 38.997 78.4651 40.3202 81.404 43.6445C84.3615 46.9734 85.8333 51.4398 85.8333 57.7123V83.9305Z" fill="#231E1E"/>
<path d="M28.0899 31.2824C32.2127 31.2824 35.5549 28.048 35.5549 24.0582C35.5549 20.0684 32.2127 16.834 28.0899 16.834C23.9671 16.834 20.6249 20.0684 20.6249 24.0582C20.6249 28.048 23.9671 31.2824 28.0899 31.2824Z" fill="#231E1E"/>
</svg>
